<?xml version="1.0" standalone="no"?>
<!DOCTYPE svg PUBLIC "-//W3C//DTD SVG 20010904//EN"
 "http://www.w3.org/TR/2001/REC-SVG-20010904/DTD/svg10.dtd">
<svg version="1.0" xmlns="http://www.w3.org/2000/svg"
 width="275.000000pt" height="275.000000pt" viewBox="0 0 275.000000 275.000000"
 preserveAspectRatio="xMidYMid meet">

<g transform="translate(0.000000,275.000000) scale(0.100000,-0.100000)"
fill="black" stroke="none">
<path d="M1240 2694 c-424 -52 -789 -286 -1000 -640 -84 -142 -141 -293 -172
-462 -16 -86 -16 -348 0 -434 105 -561 502 -965 1063 -1085 116 -24 372 -24
488 0 389 83 698 299 891 623 84 142 141 293 172 462 16 86 16 348 0 434 -105
558 -504 967 -1057 1083 -77 16 -313 28 -385 19z m400 -68 c47 -15 119 -38
160 -50 158 -49 357 -184 530 -360 l65 -67 -154 3 -155 3 -48 70 c-26 39 -65
89 -86 113 -36 40 -43 43 -83 40 -37 -3 -47 -9 -75 -45 -18 -23 -45 -74 -60
-112 l-29 -71 -156 0 -155 0 -22 -30 c-57 -77 -189 -110 -305 -76 -47 14 -62
24 -89 61 l-33 44 -294 1 -294 0 79 83 c114 120 197 190 304 257 103 63 123
72 279 120 137 42 196 49 381 46 137 -3 165 -6 240 -30z m279 -353 c35 -44
236 -313 270 -361 13 -18 21 -36 18 -38 -3 -3 -36 15 -73 40 -37 26 -72 45
-77 43 -28 -9 -31 -37 -13 -128 22 -119 13 -129 -53 -60 -31 32 -57 51 -68 49
-13 -2 -27 -37 -55 -138 -22 -74 -41 -136 -43 -139 -12 -12 -20 20 -35 137
-19 161 -22 162 -146 58 -114 -97 -131 -100 -73 -16 53 78 59 93 188 403 34
82 66 157 71 168 17 31 55 24 89 -18z m609 -350 c38 -28 70 -118 98 -268 13
-71 24 -133 24 -137 1 -57 -228 165 -321 311 -34 53 -28 69 33 100 52 27 126
24 166 -6z m-971 -48 c27 -19 25 -26 -45 -135 -63 -98 -233 -275 -275 -285
-23 -6 -36 1 -90 48 -122 107 -169 155 -165 169 3 7 18 19 33 27 30 14 46 11
126 -23 12 -5 22 3 37 28 30 51 73 70 144 63 58 -5 59 -5 72 26 15 36 36 57
81 80 38 20 55 21 82 2z m-737 -131 c90 -68 167 -141 173 -164 4 -17 0 -20
-25 -20 -16 0 -38 -5 -49 -10 -17 -10 -19 -18 -13 -75 5 -45 3 -65 -4 -65 -6
0 -34 20 -62 45 -28 25 -57 45 -64 45 -7 0 -43 -32 -80 -71 -36 -39 -72 -69
-79 -66 -8 3 -11 19 -8 48 10 97 8 104 -19 103 -14 -1 -46 -9 -72 -20 -26 -10
-50 -15 -54 -11 -4 3 11 28 32 54 61 75 238 253 251 253 6 0 39 -21 73 -46z
m-494 -27 l41 -46 34 24 c41 31 106 34 140 6 l24 -19 -25 -28 c-40 -44 -247
-261 -337 -353 -52 -53 -86 -80 -94 -76 -9 6 -10 49 -6 174 6 171 28 296 63
349 14 22 21 24 67 19 46 -4 56 -10 93 -50z m2124 -269 c79 -81 100 -108 98
-127 -2 -14 -8 -26 -15 -28 -16 -6 -136 103 -150 135 -6 15 -25 39 -42 55 -36
31 -42 67 -11 67 12 0 60 -41 120 -102z m-425 -73 c21 -100 20 -135 -4 -135
-11 0 -22 8 -25 18 -12 41 -28 183 -22 199 12 30 35 -7 51 -82z m-546 51 c10
-12 -6 -34 -81 -116 -95 -104 -142 -140 -160 -122 -6 6 -7 19 -4 29 7 22 208
223 223 223 6 0 16 -6 22 -14z m146 -6 c11 -17 -28 -71 -49 -68 -28 4 -30 21
-6 51 22 28 44 35 55 17z m-85 -118 c0 -25 -147 -220 -172 -228 -11 -3 -25 -1
-31 5 -15 15 -1 37 93 151 71 88 110 113 110 72z m890 -49 c33 -51 35 -76 8
-81 -20 -4 -78 79 -78 110 0 36 39 20 70 -29z m74 -129 c20 -20 21 -64 1 -64
-19 0 -49 46 -41 65 7 19 21 19 40 -1z m-1206 -107 c17 -20 -8 -62 -37 -62
-33 0 -36 16 -11 48 24 30 33 33 48 14z m-470 -186 c2 -7 -48 -64 -112 -128
-87 -85 -122 -113 -138 -111 -53 8 -34 33 140 186 80 71 101 80 110 53z m-100
-303 c2 -8 -11 -30 -28 -48 -29 -31 -32 -32 -48 -17 -15 16 -14 19 18 52 35
36 53 40 58 13z"/>
</g>
</svg>
